<svg width="14" height="13" viewBox="0 0 14 13" fill="none" xmlns="http://www.w3.org/2000/svg">
<path d="M0.5 2.25H13.5C13.75 2.25 14 2.03125 14 1.75V0.5C14 0.25 13.75 0 13.5 0H0.5C0.21875 0 0 0.25 0 0.5V1.75C0 2.03125 0.21875 2.25 0.5 2.25ZM0.5 7.25H13.5C13.75 7.25 14 7.03125 14 6.75V5.5C14 5.25 13.75 5 13.5 5H0.5C0.21875 5 0 5.25 0 5.5V6.75C0 7.03125 0.21875 7.25 0.5 7.25ZM0.5 12.25H13.5C13.75 12.25 14 12.0312 14 11.75V10.5C14 10.25 13.75 10 13.5 10H0.5C0.21875 10 0 10.25 0 10.5V11.75C0 12.0312 0.21875 12.25 0.5 12.25Z" fill="#FFFDED"/>
</svg>
