<svg width="12" height="4" viewBox="0 0 12 4" fill="none" xmlns="http://www.w3.org/2000/svg">
<path d="M7.80493 2.2356C7.80493 1.32153 7.03149 0.548096 6.11743 0.548096C5.17993 0.548096 4.42993 1.32153 4.42993 2.2356C4.42993 3.1731 5.17993 3.9231 6.11743 3.9231C7.03149 3.9231 7.80493 3.1731 7.80493 2.2356ZM10.2424 0.548096C9.30493 0.548096 8.55493 1.32153 8.55493 2.2356C8.55493 3.1731 9.30493 3.9231 10.2424 3.9231C11.1565 3.9231 11.9299 3.1731 11.9299 2.2356C11.9299 1.32153 11.1565 0.548096 10.2424 0.548096ZM1.99243 0.548096C1.05493 0.548096 0.304932 1.32153 0.304932 2.2356C0.304932 3.1731 1.05493 3.9231 1.99243 3.9231C2.90649 3.9231 3.67993 3.1731 3.67993 2.2356C3.67993 1.32153 2.90649 0.548096 1.99243 0.548096Z" fill="#FFFDED"/>
</svg>
