<svg width="19" height="13" viewBox="0 0 19 13" fill="none" xmlns="http://www.w3.org/2000/svg">
<path d="M17.9208 5.7981C16.2333 2.4856 12.8583 0.235596 9.04578 0.235596C5.20203 0.235596 1.82703 2.4856 0.139526 5.7981C0.0770264 5.9231 0.0457764 6.1106 0.0457764 6.26685C0.0457764 6.39185 0.0770264 6.57935 0.139526 6.70435C1.82703 10.0168 5.20203 12.2356 9.04578 12.2356C12.8583 12.2356 16.2333 10.0168 17.9208 6.70435C17.9833 6.57935 18.0145 6.39185 18.0145 6.2356C18.0145 6.1106 17.9833 5.9231 17.9208 5.7981ZM9.04578 10.7356C6.54578 10.7356 4.54578 8.7356 4.54578 6.2356C4.54578 3.76685 6.54578 1.7356 9.04578 1.7356C11.5145 1.7356 13.5458 3.76685 13.5458 6.2356V6.26685C13.5458 8.7356 11.5145 10.7356 9.04578 10.7356ZM9.04578 3.2356C8.79578 3.26685 8.45203 3.2981 8.23328 3.3606C8.38953 3.57935 8.54578 3.9856 8.54578 4.26685C8.54578 5.07935 7.85828 5.7356 7.04578 5.7356C6.76453 5.7356 6.35828 5.6106 6.13953 5.45435C6.07703 5.6731 6.04578 6.01685 6.04578 6.2356C6.04578 7.89185 7.38953 9.2356 9.04578 9.2356C10.702 9.2356 12.0458 7.89185 12.0458 6.2356C12.0458 4.57935 10.702 3.2356 9.04578 3.2356Z" fill="#FFFDED"/>
</svg>
