<svg width="23" height="19" viewBox="0 0 23 19" fill="none" xmlns="http://www.w3.org/2000/svg">
<path d="M8.50125 1.69304C7.43969 0.735314 5.43784 0.803383 4.5012 1.69273C3.56456 2.58207 3.2045 4.59344 4.50044 5.69148C5.79637 6.78952 7.50496 6.72324 8.50033 5.6918C9.4957 4.66035 9.5628 2.65077 8.50125 1.69304Z" fill="#FFFDED"/>
<path d="M14.4988 11.2877C15.5603 12.2455 17.5622 12.1774 18.4988 11.288C19.4354 10.3987 19.7955 8.38734 18.4996 7.28929C17.2036 6.19125 15.495 6.25754 14.4997 7.28898C13.5043 8.32042 13.4372 10.33 14.4988 11.2877Z" fill="#FFFDED"/>
<path d="M12.5012 13.6738C11.4397 12.7161 9.43784 12.7842 8.5012 13.6735C7.56456 14.5628 7.2045 16.5742 8.50043 17.6723C9.79637 18.7703 11.505 18.704 12.5003 17.6726C13.4957 16.6411 13.5628 14.6315 12.5012 13.6738Z" fill="#FFFDED"/>
<path d="M1 3.5H22M22 9.48077L1 9.48078M1 15.4808H22M4.5012 1.69273C5.43784 0.803383 7.43969 0.735314 8.50125 1.69304C9.5628 2.65077 9.4957 4.66035 8.50033 5.6918C7.50496 6.72324 5.79637 6.78952 4.50044 5.69148C3.2045 4.59344 3.56456 2.58207 4.5012 1.69273ZM18.4988 11.288C17.5622 12.1774 15.5603 12.2455 14.4988 11.2877C13.4372 10.33 13.5043 8.32042 14.4997 7.28898C15.495 6.25754 17.2036 6.19125 18.4996 7.28929C19.7955 8.38734 19.4354 10.3987 18.4988 11.288ZM8.5012 13.6735C9.43784 12.7842 11.4397 12.7161 12.5012 13.6738C13.5628 14.6315 13.4957 16.6411 12.5003 17.6726C11.505 18.704 9.79637 18.7703 8.50043 17.6723C7.2045 16.5742 7.56456 14.5628 8.5012 13.6735Z" stroke="#FFFDED" stroke-linecap="round" stroke-linejoin="round"/>
</svg>
