<svg width="16" height="17" viewBox="0 0 16 17" fill="none" xmlns="http://www.w3.org/2000/svg">
<path d="M10.7958 3.31539C9.10828 3.31539 7.73328 2.22164 5.63953 2.22164C4.85828 2.22164 4.17078 2.37789 3.51453 2.62789C3.57703 2.44039 3.63953 2.15914 3.63953 2.00289C3.63953 1.97164 3.60828 1.90914 3.60828 1.87789C3.57703 1.00289 2.82703 0.284143 1.95203 0.252893C0.952026 0.190393 0.139526 1.00289 0.139526 1.97164C0.139526 2.59664 0.420776 3.09664 0.889526 3.40914V15.4716C0.889526 15.9091 1.20203 16.2216 1.63953 16.2216H2.13953C2.54578 16.2216 2.88953 15.9091 2.88953 15.4716V12.5341C3.76453 12.1591 4.85828 11.8466 6.45203 11.8466C8.13953 11.8466 9.51453 12.9404 11.6083 12.9404C13.1083 12.9404 14.327 12.4091 15.452 11.6591C15.702 11.4716 15.8895 11.1591 15.8895 10.8466V3.22164C15.8895 2.50289 15.1083 2.03414 14.452 2.31539C13.3895 2.81539 12.077 3.31539 10.7958 3.31539Z" fill="#FFFDED"/>
</svg>
