<svg width="19" height="14" viewBox="0 0 19 14" fill="none" xmlns="http://www.w3.org/2000/svg">
<path d="M8.78125 3.625L3.03125 8.375V13.4688C3.03125 13.75 3.25 13.9688 3.53125 13.9688H7.03125C7.28125 13.9688 7.5 13.75 7.5 13.4688V10.4688C7.5 10.2188 7.75 9.96875 8 9.96875H10C10.2812 9.96875 10.5 10.2188 10.5 10.4688V13.4688C10.5 13.75 10.75 13.9688 11 13.9688H14.5312C14.7812 13.9688 15.0312 13.75 15.0312 13.4688V8.34375L9.25 3.625C9.1875 3.5625 9.09375 3.53125 9.03125 3.53125C8.9375 3.53125 8.84375 3.5625 8.78125 3.625ZM17.875 6.84375L15.2812 4.6875V0.375C15.2812 0.15625 15.0938 0 14.9062 0H13.1562C12.9375 0 12.7812 0.15625 12.7812 0.375V2.625L9.96875 0.3125C9.71875 0.125 9.375 0 9.03125 0C8.65625 0 8.3125 0.125 8.0625 0.3125L0.15625 6.84375C0.0625 6.90625 0 7.03125 0 7.125C0 7.21875 0.0625 7.3125 0.09375 7.375L0.90625 8.34375C0.96875 8.4375 1.0625 8.46875 1.1875 8.46875C1.28125 8.46875 1.375 8.4375 1.4375 8.375L8.78125 2.34375C8.84375 2.28125 8.9375 2.25 9.03125 2.25C9.09375 2.25 9.1875 2.28125 9.25 2.34375L16.5938 8.375C16.6562 8.4375 16.75 8.46875 16.8438 8.46875C16.9688 8.46875 17.0625 8.4375 17.125 8.34375L17.9375 7.375C18 7.3125 18.0312 7.21875 18.0312 7.125C18.0312 7.03125 17.9688 6.90625 17.875 6.84375Z" fill="#FFFDED"/>
</svg>
