<svg width="17" height="17" viewBox="0 0 17 17" fill="none" xmlns="http://www.w3.org/2000/svg">
<path d="M15.8704 5.36334L11.3079 4.70709L9.24539 0.550844C8.90164 -0.167906 7.83914 -0.199156 7.46414 0.550844L5.43289 4.70709L0.839141 5.36334C0.0266407 5.48834 -0.285859 6.48834 0.307891 7.08209L3.58914 10.3008L2.80789 14.8321C2.68289 15.6446 3.55789 16.2696 4.27664 15.8946L8.37039 13.7383L12.4329 15.8946C13.1516 16.2696 14.0266 15.6446 13.9016 14.8321L13.1204 10.3008L16.4016 7.08209C16.9954 6.48834 16.6829 5.48834 15.8704 5.36334ZM11.4954 9.76959L12.2454 14.0821L8.37039 12.0508L4.46414 14.0821L5.21414 9.76959L2.05789 6.70709L6.40164 6.08209L8.37039 2.14459L10.3079 6.08209L14.6516 6.70709L11.4954 9.76959Z" fill="#FFFDED"/>
</svg>
