<svg width="12" height="12" viewBox="0 0 12 12" fill="none" xmlns="http://www.w3.org/2000/svg">
<path d="M8.47607 6.21997L11.6011 3.09497C12.0073 2.71997 12.0073 2.09497 11.6011 1.71997L10.9136 1.03247C10.5386 0.626221 9.91357 0.626221 9.53857 1.03247L6.41357 4.15747L3.25732 1.03247C2.88232 0.626221 2.25732 0.626221 1.88232 1.03247L1.19482 1.71997C0.788574 2.09497 0.788574 2.71997 1.19482 3.09497L4.31982 6.21997L1.19482 9.37622C0.788574 9.75122 0.788574 10.3762 1.19482 10.7512L1.88232 11.4387C2.25732 11.845 2.88232 11.845 3.25732 11.4387L6.41357 8.31372L9.53857 11.4387C9.91357 11.845 10.5386 11.845 10.9136 11.4387L11.6011 10.7512C12.0073 10.3762 12.0073 9.75122 11.6011 9.37622L8.47607 6.21997Z" fill="#FFFDED"/>
</svg>
