<svg width="821" height="153" viewBox="0 0 821 153" fill="none" xmlns="http://www.w3.org/2000/svg">
<path d="M35.8398 17.7734C35.8398 20.2474 35.3516 22.5586 34.375 24.707C33.4635 26.8555 32.194 28.7435 30.5664 30.3711C28.9388 31.9336 27.0182 33.2031 24.8047 34.1797C22.6562 35.0911 20.3451 35.5469 17.8711 35.5469C15.3971 35.5469 13.0534 35.0911 10.8398 34.1797C8.69141 33.2031 6.80339 31.9336 5.17578 30.3711C3.61328 28.7435 2.34375 26.8555 1.36719 24.707C0.455729 22.5586 0 20.2474 0 17.7734C0 15.3646 0.455729 13.0859 1.36719 10.9375C2.34375 8.72396 3.61328 6.83594 5.17578 5.27344C6.80339 3.64583 8.69141 2.3763 10.8398 1.46484C13.0534 0.488281 15.3971 0 17.8711 0C20.3451 0 22.6562 0.488281 24.8047 1.46484C27.0182 2.3763 28.9388 3.64583 30.5664 5.27344C32.194 6.83594 33.4635 8.72396 34.375 10.9375C35.3516 13.0859 35.8398 15.3646 35.8398 17.7734ZM31.25 150.781H4.39453V46.1914H31.25V150.781Z" fill="#F8F8F8"/>
<path d="M82.5195 150.781H54.4922V10.7422H152.539V38.7695H82.5195V66.7969H124.512V94.8242H82.5195V150.781Z" fill="#F8F8F8"/>
<path d="M191.016 150.781H164.16V4.58984H191.016V150.781Z" fill="#F8F8F8"/>
<path d="M253.027 125.195C254.069 125.521 255.111 125.749 256.152 125.879C257.194 125.944 258.236 125.977 259.277 125.977C261.882 125.977 264.388 125.618 266.797 124.902C269.206 124.186 271.452 123.177 273.535 121.875C275.684 120.508 277.572 118.88 279.199 116.992C280.892 115.039 282.259 112.891 283.301 110.547L302.832 130.176C300.358 133.691 297.493 136.849 294.238 139.648C291.048 142.448 287.565 144.824 283.789 146.777C280.078 148.73 276.139 150.195 271.973 151.172C267.871 152.214 263.639 152.734 259.277 152.734C251.921 152.734 244.987 151.367 238.477 148.633C232.031 145.898 226.367 142.09 221.484 137.207C216.667 132.324 212.858 126.53 210.059 119.824C207.259 113.053 205.859 105.632 205.859 97.5586C205.859 89.2904 207.259 81.7383 210.059 74.9023C212.858 68.0664 216.667 62.2396 221.484 57.4219C226.367 52.6042 232.031 48.8607 238.477 46.1914C244.987 43.5221 251.921 42.1875 259.277 42.1875C263.639 42.1875 267.904 42.7083 272.07 43.75C276.237 44.7917 280.176 46.2891 283.887 48.2422C287.663 50.1953 291.178 52.6042 294.434 55.4688C297.689 58.2682 300.553 61.4258 303.027 64.9414L253.027 125.195ZM266.699 70.2148C265.462 69.7591 264.225 69.4661 262.988 69.3359C261.816 69.2057 260.579 69.1406 259.277 69.1406C255.632 69.1406 252.181 69.8242 248.926 71.1914C245.736 72.4935 242.936 74.3815 240.527 76.8555C238.184 79.3294 236.328 82.3242 234.961 85.8398C233.594 89.2904 232.91 93.1966 232.91 97.5586C232.91 98.5352 232.943 99.6419 233.008 100.879C233.138 102.116 233.301 103.385 233.496 104.688C233.757 105.924 234.049 107.129 234.375 108.301C234.701 109.473 235.124 110.514 235.645 111.426L266.699 70.2148Z" fill="#F8F8F8"/>
<path d="M411.816 150.781H379.199L358.398 118.75L337.402 150.781H304.785L342.969 97.168L304.785 45.6055H337.402L358.398 75.5859L379.199 45.6055H411.816L373.535 97.168L411.816 150.781Z" fill="#F8F8F8"/>
<path d="M448.047 150.781H421.387V4.58984H448.047V50.7812C451.237 48.3724 454.525 46.6797 457.91 45.7031C461.296 44.6615 464.746 44.1406 468.262 44.1406C474.707 44.1406 480.762 45.3776 486.426 47.8516C492.09 50.2604 497.005 53.6133 501.172 57.9102C505.404 62.1419 508.724 67.1224 511.133 72.8516C513.607 78.5156 514.844 84.5703 514.844 91.0156V150.781H487.988V91.0156H488.184C488.184 88.2812 487.663 85.7096 486.621 83.3008C485.579 80.8268 484.147 78.6784 482.324 76.8555C480.501 75.0326 478.385 73.6003 475.977 72.5586C473.568 71.5169 470.996 70.9961 468.262 70.9961C465.462 70.9961 462.826 71.5169 460.352 72.5586C457.878 73.6003 455.729 75.0326 453.906 76.8555C452.083 78.6784 450.651 80.8268 449.609 83.3008C448.568 85.7096 448.047 88.2812 448.047 91.0156V150.781Z" fill="#F8F8F8"/>
<path d="M565.332 17.7734C565.332 20.2474 564.844 22.5586 563.867 24.707C562.956 26.8555 561.686 28.7435 560.059 30.3711C558.431 31.9336 556.51 33.2031 554.297 34.1797C552.148 35.0911 549.837 35.5469 547.363 35.5469C544.889 35.5469 542.546 35.0911 540.332 34.1797C538.184 33.2031 536.296 31.9336 534.668 30.3711C533.105 28.7435 531.836 26.8555 530.859 24.707C529.948 22.5586 529.492 20.2474 529.492 17.7734C529.492 15.3646 529.948 13.0859 530.859 10.9375C531.836 8.72396 533.105 6.83594 534.668 5.27344C536.296 3.64583 538.184 2.3763 540.332 1.46484C542.546 0.488281 544.889 0 547.363 0C549.837 0 552.148 0.488281 554.297 1.46484C556.51 2.3763 558.431 3.64583 560.059 5.27344C561.686 6.83594 562.956 8.72396 563.867 10.9375C564.844 13.0859 565.332 15.3646 565.332 17.7734ZM560.742 150.781H533.887V46.1914H560.742V150.781Z" fill="#F8F8F8"/>
<path d="M685.84 97.5586C685.84 105.762 684.44 113.249 681.641 120.02C678.841 126.79 675.033 132.617 670.215 137.5C665.397 142.318 659.733 146.061 653.223 148.73C646.777 151.4 639.844 152.734 632.422 152.734C625.065 152.734 618.132 151.367 611.621 148.633C605.176 145.898 599.512 142.09 594.629 137.207C589.811 132.324 586.003 126.53 583.203 119.824C580.404 113.053 579.004 105.632 579.004 97.5586V4.58984H605.762V53.418C607.194 51.5951 608.919 49.9674 610.938 48.5352C613.021 47.1029 615.234 45.931 617.578 45.0195C619.987 44.1081 622.461 43.4245 625 42.9688C627.539 42.4479 630.013 42.1875 632.422 42.1875C639.844 42.1875 646.777 43.5872 653.223 46.3867C659.733 49.1211 665.397 52.9622 670.215 57.9102C675.033 62.8581 678.841 68.7174 681.641 75.4883C684.44 82.194 685.84 89.5508 685.84 97.5586ZM658.984 97.5586C658.984 93.5221 658.268 89.7786 656.836 86.3281C655.469 82.8125 653.581 79.7852 651.172 77.2461C648.763 74.707 645.931 72.7214 642.676 71.2891C639.486 69.8568 636.068 69.1406 632.422 69.1406C628.776 69.1406 625.326 69.9544 622.07 71.582C618.88 73.1445 616.081 75.2604 613.672 77.9297C611.263 80.5339 609.375 83.5612 608.008 87.0117C606.641 90.3971 605.957 93.9128 605.957 97.5586C605.957 101.595 606.641 105.339 608.008 108.789C609.375 112.24 611.263 115.234 613.672 117.773C616.081 120.312 618.88 122.331 622.07 123.828C625.326 125.26 628.776 125.977 632.422 125.977C636.068 125.977 639.486 125.26 642.676 123.828C645.931 122.331 648.763 120.312 651.172 117.773C653.581 115.234 655.469 112.24 656.836 108.789C658.268 105.339 658.984 101.595 658.984 97.5586Z" fill="#F8F8F8"/>
<path d="M732.129 17.7734C732.129 20.2474 731.641 22.5586 730.664 24.707C729.753 26.8555 728.483 28.7435 726.855 30.3711C725.228 31.9336 723.307 33.2031 721.094 34.1797C718.945 35.0911 716.634 35.5469 714.16 35.5469C711.686 35.5469 709.342 35.0911 707.129 34.1797C704.98 33.2031 703.092 31.9336 701.465 30.3711C699.902 28.7435 698.633 26.8555 697.656 24.707C696.745 22.5586 696.289 20.2474 696.289 17.7734C696.289 15.3646 696.745 13.0859 697.656 10.9375C698.633 8.72396 699.902 6.83594 701.465 5.27344C703.092 3.64583 704.98 2.3763 707.129 1.46484C709.342 0.488281 711.686 0 714.16 0C716.634 0 718.945 0.488281 721.094 1.46484C723.307 2.3763 725.228 3.64583 726.855 5.27344C728.483 6.83594 729.753 8.72396 730.664 10.9375C731.641 13.0859 732.129 15.3646 732.129 17.7734ZM727.539 150.781H700.684V46.1914H727.539V150.781Z" fill="#F8F8F8"/>
<path d="M800.391 150.781C793.945 150.781 787.891 149.577 782.227 147.168C776.562 144.694 771.582 141.341 767.285 137.109C763.053 132.812 759.701 127.832 757.227 122.168C754.818 116.504 753.613 110.449 753.613 104.004V72.9492H740.625V46.3867H753.613V4.58984H780.176V46.3867H820.605V72.9492H780.176V104.004C780.176 106.803 780.697 109.44 781.738 111.914C782.78 114.323 784.212 116.439 786.035 118.262C787.858 120.085 790.007 121.549 792.48 122.656C794.954 123.698 797.591 124.219 800.391 124.219H820.605V150.781H800.391Z" fill="#F8F8F8"/>
</svg>
