<svg width="822" height="153" viewBox="0 0 822 153" fill="none" xmlns="http://www.w3.org/2000/svg">
<path d="M36.6016 17.9922C36.6016 20.4661 36.1133 22.7773 35.1367 24.9258C34.2253 27.0742 32.9557 28.9622 31.3281 30.5898C29.7005 32.1523 27.7799 33.4219 25.5664 34.3984C23.418 35.3099 21.1068 35.7656 18.6328 35.7656C16.1589 35.7656 13.8151 35.3099 11.6016 34.3984C9.45312 33.4219 7.5651 32.1523 5.9375 30.5898C4.375 28.9622 3.10547 27.0742 2.12891 24.9258C1.21745 22.7773 0.761719 20.4661 0.761719 17.9922C0.761719 15.5833 1.21745 13.3047 2.12891 11.1562C3.10547 8.94271 4.375 7.05469 5.9375 5.49219C7.5651 3.86458 9.45312 2.59505 11.6016 1.68359C13.8151 0.707031 16.1589 0.21875 18.6328 0.21875C21.1068 0.21875 23.418 0.707031 25.5664 1.68359C27.7799 2.59505 29.7005 3.86458 31.3281 5.49219C32.9557 7.05469 34.2253 8.94271 35.1367 11.1562C36.1133 13.3047 36.6016 15.5833 36.6016 17.9922ZM32.0117 151H5.15625V46.4102H32.0117V151Z" fill="white"/>
<path d="M83.2812 151H55.2539V10.9609H153.301V38.9883H83.2812V67.0156H125.273V95.043H83.2812V151Z" fill="white"/>
<path d="M191.777 151H164.922V4.80859H191.777V151Z" fill="white"/>
<path d="M253.789 125.414C254.831 125.74 255.872 125.967 256.914 126.098C257.956 126.163 258.997 126.195 260.039 126.195C262.643 126.195 265.15 125.837 267.559 125.121C269.967 124.405 272.214 123.396 274.297 122.094C276.445 120.727 278.333 119.099 279.961 117.211C281.654 115.258 283.021 113.109 284.062 110.766L303.594 130.395C301.12 133.91 298.255 137.068 295 139.867C291.81 142.667 288.327 145.043 284.551 146.996C280.84 148.949 276.901 150.414 272.734 151.391C268.633 152.432 264.401 152.953 260.039 152.953C252.682 152.953 245.749 151.586 239.238 148.852C232.793 146.117 227.129 142.309 222.246 137.426C217.428 132.543 213.62 126.749 210.82 120.043C208.021 113.272 206.621 105.85 206.621 97.7773C206.621 89.5091 208.021 81.957 210.82 75.1211C213.62 68.2852 217.428 62.4583 222.246 57.6406C227.129 52.8229 232.793 49.0794 239.238 46.4102C245.749 43.7409 252.682 42.4062 260.039 42.4062C264.401 42.4062 268.665 42.9271 272.832 43.9688C276.999 45.0104 280.938 46.5078 284.648 48.4609C288.424 50.4141 291.94 52.8229 295.195 55.6875C298.451 58.487 301.315 61.6445 303.789 65.1602L253.789 125.414ZM267.461 70.4336C266.224 69.9779 264.987 69.6849 263.75 69.5547C262.578 69.4245 261.341 69.3594 260.039 69.3594C256.393 69.3594 252.943 70.043 249.688 71.4102C246.497 72.7122 243.698 74.6003 241.289 77.0742C238.945 79.5482 237.09 82.543 235.723 86.0586C234.355 89.5091 233.672 93.4154 233.672 97.7773C233.672 98.7539 233.704 99.8607 233.77 101.098C233.9 102.335 234.062 103.604 234.258 104.906C234.518 106.143 234.811 107.348 235.137 108.52C235.462 109.691 235.885 110.733 236.406 111.645L267.461 70.4336Z" fill="white"/>
<path d="M412.578 151H379.961L359.16 118.969L338.164 151H305.547L343.73 97.3867L305.547 45.8242H338.164L359.16 75.8047L379.961 45.8242H412.578L374.297 97.3867L412.578 151Z" fill="white"/>
<path d="M448.809 151H422.148V4.80859H448.809V51C451.999 48.5911 455.286 46.8984 458.672 45.9219C462.057 44.8802 465.508 44.3594 469.023 44.3594C475.469 44.3594 481.523 45.5964 487.188 48.0703C492.852 50.4792 497.767 53.832 501.934 58.1289C506.165 62.3607 509.486 67.3411 511.895 73.0703C514.368 78.7344 515.605 84.7891 515.605 91.2344V151H488.75V91.2344H488.945C488.945 88.5 488.424 85.9284 487.383 83.5195C486.341 81.0456 484.909 78.8971 483.086 77.0742C481.263 75.2513 479.147 73.819 476.738 72.7773C474.329 71.7357 471.758 71.2148 469.023 71.2148C466.224 71.2148 463.587 71.7357 461.113 72.7773C458.639 73.819 456.491 75.2513 454.668 77.0742C452.845 78.8971 451.413 81.0456 450.371 83.5195C449.329 85.9284 448.809 88.5 448.809 91.2344V151Z" fill="white"/>
<path d="M566.094 17.9922C566.094 20.4661 565.605 22.7773 564.629 24.9258C563.717 27.0742 562.448 28.9622 560.82 30.5898C559.193 32.1523 557.272 33.4219 555.059 34.3984C552.91 35.3099 550.599 35.7656 548.125 35.7656C545.651 35.7656 543.307 35.3099 541.094 34.3984C538.945 33.4219 537.057 32.1523 535.43 30.5898C533.867 28.9622 532.598 27.0742 531.621 24.9258C530.71 22.7773 530.254 20.4661 530.254 17.9922C530.254 15.5833 530.71 13.3047 531.621 11.1562C532.598 8.94271 533.867 7.05469 535.43 5.49219C537.057 3.86458 538.945 2.59505 541.094 1.68359C543.307 0.707031 545.651 0.21875 548.125 0.21875C550.599 0.21875 552.91 0.707031 555.059 1.68359C557.272 2.59505 559.193 3.86458 560.82 5.49219C562.448 7.05469 563.717 8.94271 564.629 11.1562C565.605 13.3047 566.094 15.5833 566.094 17.9922ZM561.504 151H534.648V46.4102H561.504V151Z" fill="white"/>
<path d="M686.602 97.7773C686.602 105.98 685.202 113.467 682.402 120.238C679.603 127.009 675.794 132.836 670.977 137.719C666.159 142.536 660.495 146.28 653.984 148.949C647.539 151.618 640.605 152.953 633.184 152.953C625.827 152.953 618.893 151.586 612.383 148.852C605.938 146.117 600.273 142.309 595.391 137.426C590.573 132.543 586.764 126.749 583.965 120.043C581.165 113.272 579.766 105.85 579.766 97.7773V4.80859H606.523V53.6367C607.956 51.8138 609.681 50.1862 611.699 48.7539C613.783 47.3216 615.996 46.1497 618.34 45.2383C620.749 44.3268 623.223 43.6432 625.762 43.1875C628.301 42.6667 630.775 42.4062 633.184 42.4062C640.605 42.4062 647.539 43.806 653.984 46.6055C660.495 49.3398 666.159 53.181 670.977 58.1289C675.794 63.0768 679.603 68.9362 682.402 75.707C685.202 82.4128 686.602 89.7695 686.602 97.7773ZM659.746 97.7773C659.746 93.7409 659.03 89.9974 657.598 86.5469C656.23 83.0312 654.342 80.0039 651.934 77.4648C649.525 74.9258 646.693 72.9401 643.438 71.5078C640.247 70.0755 636.829 69.3594 633.184 69.3594C629.538 69.3594 626.087 70.1732 622.832 71.8008C619.642 73.3633 616.842 75.4792 614.434 78.1484C612.025 80.7526 610.137 83.7799 608.77 87.2305C607.402 90.6159 606.719 94.1315 606.719 97.7773C606.719 101.814 607.402 105.557 608.77 109.008C610.137 112.458 612.025 115.453 614.434 117.992C616.842 120.531 619.642 122.549 622.832 124.047C626.087 125.479 629.538 126.195 633.184 126.195C636.829 126.195 640.247 125.479 643.438 124.047C646.693 122.549 649.525 120.531 651.934 117.992C654.342 115.453 656.23 112.458 657.598 109.008C659.03 105.557 659.746 101.814 659.746 97.7773Z" fill="white"/>
<path d="M732.891 17.9922C732.891 20.4661 732.402 22.7773 731.426 24.9258C730.514 27.0742 729.245 28.9622 727.617 30.5898C725.99 32.1523 724.069 33.4219 721.855 34.3984C719.707 35.3099 717.396 35.7656 714.922 35.7656C712.448 35.7656 710.104 35.3099 707.891 34.3984C705.742 33.4219 703.854 32.1523 702.227 30.5898C700.664 28.9622 699.395 27.0742 698.418 24.9258C697.507 22.7773 697.051 20.4661 697.051 17.9922C697.051 15.5833 697.507 13.3047 698.418 11.1562C699.395 8.94271 700.664 7.05469 702.227 5.49219C703.854 3.86458 705.742 2.59505 707.891 1.68359C710.104 0.707031 712.448 0.21875 714.922 0.21875C717.396 0.21875 719.707 0.707031 721.855 1.68359C724.069 2.59505 725.99 3.86458 727.617 5.49219C729.245 7.05469 730.514 8.94271 731.426 11.1562C732.402 13.3047 732.891 15.5833 732.891 17.9922ZM728.301 151H701.445V46.4102H728.301V151Z" fill="white"/>
<path d="M801.152 151C794.707 151 788.652 149.796 782.988 147.387C777.324 144.913 772.344 141.56 768.047 137.328C763.815 133.031 760.462 128.051 757.988 122.387C755.579 116.723 754.375 110.668 754.375 104.223V73.168H741.387V46.6055H754.375V4.80859H780.938V46.6055H821.367V73.168H780.938V104.223C780.938 107.022 781.458 109.659 782.5 112.133C783.542 114.542 784.974 116.658 786.797 118.48C788.62 120.303 790.768 121.768 793.242 122.875C795.716 123.917 798.353 124.438 801.152 124.438H821.367V151H801.152Z" fill="white"/>
</svg>
